<svg width="36" height="36" viewBox="0 0 36 36" fill="none" xmlns="http://www.w3.org/2000/svg">
<path d="M31.0299 18.4382L31.9752 19.2561L31.0299 18.4382ZM7.875 30.75C7.18464 30.75 6.625 31.3096 6.625 32C6.625 32.6904 7.18464 33.25 7.875 33.25V30.75ZM31.875 33.25C32.5654 33.25 33.125 32.6904 33.125 32C33.125 31.3096 32.5654 30.75 31.875 30.75V33.25ZM19.0545 5.86393L30.081 17.3941L31.8878 15.6663L20.8613 4.13607L19.0545 5.86393ZM30.0847 17.6203L18.3506 31.1821L20.2411 32.8179L31.9752 19.2561L30.0847 17.6203ZM30.081 17.3941C30.102 17.4161 30.1209 17.4531 30.1221 17.5045C30.1234 17.556 30.1062 17.5955 30.0847 17.6203L31.9752 19.2561C32.8689 18.2232 32.8338 16.6556 31.8878 15.6663L30.081 17.3941ZM7.875 33.25H31.875V30.75H7.875V33.25Z" fill="white"/>
<path fill-rule="evenodd" clip-rule="evenodd" d="M12.875 25.125C19.5024 25.125 24.875 19.5845 24.875 12.75C24.875 5.91548 19.5024 0.375 12.875 0.375C9.22152 0.375 5.94939 2.05872 3.74842 4.71478L20.6667 22.1618C18.5702 24.0093 15.8489 25.1249 12.875 25.1249C6.24758 25.1249 0.875 19.5845 0.875 12.7499C0.875 12.75 0.875 12.75 0.875 12.75C0.875 19.5845 6.24758 25.125 12.875 25.125Z" fill="white"/>
<path fill-rule="evenodd" clip-rule="evenodd" d="M6.51153 12.5272C5.51005 13.4099 4.8752 14.7221 4.8752 16.1873C4.8752 18.8453 6.96464 21 9.54209 21C12.1195 21 14.209 18.8453 14.209 16.1873C14.209 17.3801 13.7881 18.4716 13.0912 19.3125L6.51153 12.5272Z" fill="white"/>
<path d="M24.8821 1.32663C25.3269 1.28297 25.6815 1.69992 25.5816 2.14908L24.9686 4.90268C24.8486 5.44164 24.187 5.61568 23.8343 5.20105L21.72 2.71509C21.3673 2.30045 21.621 1.64665 22.1548 1.59426L24.8821 1.32663Z" fill="white"/>
</svg>
