<svg width="46" height="46" viewBox="0 0 46 46" fill="none" xmlns="http://www.w3.org/2000/svg">
<path d="M21.5734 7.56794C21.9006 7.05817 21.7632 6.36896 21.268 6.03614L19.059 4.55137C18.5734 4.22493 17.9253 4.36438 17.6045 4.86434L14.8692 9.12632L19.1472 11.3483L21.5734 7.56794Z" fill="white"/>
<path d="M25.3321 14.5606L27.3346 11.4403C27.6618 10.9305 27.5243 10.2413 27.0292 9.90848L24.8202 8.42371C24.3345 8.09727 23.6865 8.23672 23.3656 8.73668L21.0541 12.3386L25.3321 14.5606Z" fill="white"/>
<path d="M27.7489 20.9833L25.812 20.0891C25.213 19.8125 24.9979 19.0423 25.3614 18.4756L29.1265 12.6089C29.4474 12.1089 30.0954 11.9695 30.5811 12.2959L32.3352 13.4751C32.8304 13.8079 32.9678 14.4971 32.6406 15.0069L29.0584 20.5887C28.7726 21.034 28.2196 21.2006 27.7489 20.9833Z" fill="white"/>
<path d="M37.6421 17.0418L35.888 15.8627C35.4023 15.5363 34.7543 15.6757 34.4334 16.1757L31.2213 21.1808C30.8577 21.7474 31.0728 22.5176 31.6718 22.7942L33.6087 23.6884C34.0795 23.9057 34.6324 23.7391 34.9182 23.2938L37.9475 18.5735C38.2747 18.0639 38.1373 17.3747 37.6421 17.0418Z" fill="white"/>
<path d="M32.7489 25.6964C33.1573 25.885 33.5909 25.9807 34.0372 25.9807C34.9258 25.9807 35.7601 25.5965 36.3547 24.9343V28.15C36.3547 30.3223 35.316 32.3385 33.576 33.5434C33.1835 33.8153 32.9182 33.9996 32.9182 33.9996C32.6248 34.2035 32.4487 34.546 32.4487 34.9128V40.7766C32.4487 41.3834 31.9751 41.8753 31.3911 41.8753H15.396C14.708 41.8753 14.2031 41.2036 14.37 40.5102L16.304 32.4741C16.3807 32.1554 16.316 31.8177 16.1278 31.5538L8.33276 20.6223C8.06723 20.2499 8.05517 19.7445 8.30265 19.3589L13.1691 11.7759C13.4649 11.3149 14.045 11.1549 14.522 11.4026L23.078 15.8466C23.647 16.1422 23.838 16.8889 23.4851 17.4387L22.838 18.447C22.6419 18.7526 22.3116 18.9362 21.958 18.9362H15.2779C14.6769 18.9362 14.1929 19.457 14.2215 20.088C14.2483 20.6789 14.7384 21.1335 15.3078 21.1335H19.8324L24.7349 31.3188C24.9895 31.8479 25.6001 32.0999 26.1209 31.8604C26.6768 31.6048 26.9089 30.9224 26.6401 30.3639L22.1973 21.1335H22.8656L32.7489 25.6964Z" fill="white"/>
</svg>
