<svg width="62" height="62" viewBox="0 0 62 62" fill="none" xmlns="http://www.w3.org/2000/svg">
<circle cx="31" cy="31" r="31" fill="url(#paint0_linear_550_4712)"/>
<path d="M36.24 35.36V38H25.66V35.9L31.06 30.8C31.6333 30.2533 32.02 29.7867 32.22 29.4C32.42 29 32.52 28.6067 32.52 28.22C32.52 27.66 32.3267 27.2333 31.94 26.94C31.5667 26.6333 31.0133 26.48 30.28 26.48C29.6667 26.48 29.1133 26.6 28.62 26.84C28.1267 27.0667 27.7133 27.4133 27.38 27.88L25.02 26.36C25.5667 25.5467 26.32 24.9133 27.28 24.46C28.24 23.9933 29.34 23.76 30.58 23.76C31.62 23.76 32.5267 23.9333 33.3 24.28C34.0867 24.6133 34.6933 25.0933 35.12 25.72C35.56 26.3333 35.78 27.06 35.78 27.9C35.78 28.66 35.62 29.3733 35.3 30.04C34.98 30.7067 34.36 31.4667 33.44 32.32L30.22 35.36H36.24Z" fill="white"/>
<defs>
<linearGradient id="paint0_linear_550_4712" x1="-1.28887e-07" y1="31" x2="59.5009" y2="43.1943" gradientUnits="userSpaceOnUse">
<stop stop-color="#FF55F1"/>
<stop offset="1" stop-color="#7300FF"/>
</linearGradient>
</defs>
</svg>
