<svg width="62" height="63" viewBox="0 0 62 63" fill="none" xmlns="http://www.w3.org/2000/svg">
<circle cx="31" cy="31.4531" r="31" fill="url(#paint0_linear_550_4760)"/>
<path d="M32.32 30.1531C33.5467 30.3531 34.4867 30.8131 35.14 31.5331C35.7933 32.2398 36.12 33.1198 36.12 34.1731C36.12 34.9865 35.9067 35.7398 35.48 36.4331C35.0533 37.1131 34.4 37.6598 33.52 38.0731C32.6533 38.4865 31.5867 38.6931 30.32 38.6931C29.3333 38.6931 28.36 38.5665 27.4 38.3131C26.4533 38.0465 25.6467 37.6731 24.98 37.1931L26.24 34.7131C26.7733 35.1131 27.3867 35.4265 28.08 35.6531C28.7867 35.8665 29.5067 35.9731 30.24 35.9731C31.0533 35.9731 31.6933 35.8198 32.16 35.5131C32.6267 35.1931 32.86 34.7465 32.86 34.1731C32.86 33.0265 31.9867 32.4531 30.24 32.4531H28.76V30.3131L31.64 27.0531H25.68V24.4531H35.48V26.5531L32.32 30.1531Z" fill="white"/>
<defs>
<linearGradient id="paint0_linear_550_4760" x1="-1.28887e-07" y1="31.4531" x2="59.5009" y2="43.6474" gradientUnits="userSpaceOnUse">
<stop stop-color="#FF55F1"/>
<stop offset="1" stop-color="#7300FF"/>
</linearGradient>
</defs>
</svg>
