<svg width="32" height="32" viewBox="0 0 32 32" fill="none" xmlns="http://www.w3.org/2000/svg">
<path fill-rule="evenodd" clip-rule="evenodd" d="M17.4723 5.56869L19.9089 10.4364C20.1477 10.9142 20.6086 11.2456 21.1431 11.3223L26.5938 12.1068C27.9405 12.3013 28.4764 13.9334 27.5018 14.8686L23.5602 18.6559C23.1729 19.0284 22.9966 19.5637 23.0882 20.0895L24.0184 25.4364C24.2475 26.7591 22.8397 27.7683 21.636 27.1425L16.7643 24.6163C16.2867 24.3684 15.7147 24.3684 15.2357 24.6163L10.364 27.1425C9.16031 27.7683 7.75253 26.7591 7.98299 25.4364L8.91179 20.0895C9.00343 19.5637 8.82711 19.0284 8.43976 18.6559L4.49824 14.8686C3.52362 13.9334 4.05952 12.3013 5.40622 12.1068L10.8569 11.3223C11.3914 11.2456 11.8537 10.9142 12.0925 10.4364L14.5277 5.56869C15.1302 4.36512 16.8698 4.36512 17.4723 5.56869Z" stroke="url(#paint0_linear_423_1405)" stroke-width="1.5" stroke-linecap="round" stroke-linejoin="round"/>
<defs>
<linearGradient id="paint0_linear_423_1405" x1="4" y1="15.9993" x2="26.9207" y2="20.9731" gradientUnits="userSpaceOnUse">
<stop stop-color="#FF55F1"/>
<stop offset="1" stop-color="#7300FF"/>
</linearGradient>
</defs>
</svg>
