<svg width="250" height="101" viewBox="0 0 250 101" fill="none" xmlns="http://www.w3.org/2000/svg">
<path d="M167.774 48.6554C165.929 48.6554 164.116 48.2176 164.147 46.0604C163.991 40.808 165.585 36.1809 158.145 36.9312V66.1634C164.397 66.6324 164.398 62.2866 164.147 57.5657C164.147 54.4392 167.68 54.2829 170.119 54.4392V48.5928C169.431 48.6241 168.587 48.6867 167.774 48.6554Z" fill="url(#paint0_linear_12_412)"/>
<path d="M124.441 36.9312H94.49C93.9273 42.2774 97.1475 42.9339 100.743 42.8401H102.994H103.432C104.275 42.7931 105.121 42.7931 105.964 42.8401H106.37V62.2241C106.37 65.3505 109.497 66.6011 112.373 66.2259V42.8401C117.344 42.4649 125.629 44.8411 124.441 36.9312Z" fill="url(#paint1_linear_12_412)"/>
<path d="M170.119 54.4704C170.119 60.7233 170.119 60.3481 176.122 60.3481C176.34 54.1578 176.122 54.4704 170.119 54.4704Z" fill="url(#paint2_linear_12_412)"/>
<path d="M176.121 43.7776C170.15 43.7776 169.869 43.4649 170.119 49.624C176.215 49.7178 176.247 49.9992 176.121 43.7776Z" fill="url(#paint3_linear_12_412)"/>
<path d="M182.124 37.9311C176.153 37.9311 175.871 37.6185 176.121 43.7776C182.218 43.9026 182.249 44.184 182.124 37.9311Z" fill="url(#paint4_linear_12_412)"/>
<path d="M176.122 61.3483C176.122 67.6012 176.122 67.1947 182.124 67.1634C182.312 61.0356 182.124 61.1919 176.122 61.3483Z" fill="url(#paint5_linear_12_412)"/>
<path d="M128.35 42.7464C127.268 44.6502 126.717 46.8098 126.755 48.9992V66.2572C134.04 67.1013 132.727 62.0991 132.695 57.4094C132.695 57.0342 132.695 56.659 132.695 56.2838C132.695 56.0677 132.738 55.8537 132.822 55.6544C132.906 55.4551 133.028 55.2744 133.183 55.123C133.337 54.9717 133.52 54.8526 133.72 54.7728C133.921 54.6929 134.136 54.6539 134.352 54.6581H143.044C147.734 55.0958 140.136 67.4765 150.672 66.351V49.093C150.485 35.7118 133.665 33.5546 128.35 42.7464ZM132.726 48.6241C132.726 41.2769 144.545 40.6204 144.732 48.6241H132.726Z" fill="url(#paint6_linear_12_412)"/>
<path d="M90.9923 59.7464H96.0884C95.0567 59.7464 93.9624 59.7464 92.962 59.7464C92.3062 59.7015 91.6481 59.7015 90.9923 59.7464Z" fill="url(#paint7_linear_12_412)"/>
<path opacity="0.15" d="M104.999 59.7463H104.467V62.0912L103.936 61.8098H103.592C103.077 61.5853 102.544 61.4074 101.997 61.2783H101.528C100.684 61.0594 99.4648 60.9343 98.4019 60.778V59.9026H104.905L104.999 59.7463Z" fill="url(#paint8_linear_12_412)"/>
<path opacity="0.15" d="M132.695 57.4714V58.3468C132.659 58.0562 132.659 57.7621 132.695 57.4714Z" fill="url(#paint9_linear_12_412)"/>
<path d="M158.145 37.9312V39.4944C157.863 37.9312 158.145 37.9312 158.145 37.9312Z" fill="url(#paint10_linear_12_412)"/>
<path d="M27.2752 25.2616C28.5357 25.2616 29.5575 24.2398 29.5575 22.9793C29.5575 21.7188 28.5357 20.697 27.2752 20.697C26.0147 20.697 24.9929 21.7188 24.9929 22.9793C24.9929 24.2398 26.0147 25.2616 27.2752 25.2616Z" fill="url(#paint11_linear_12_412)"/>
<path d="M29.5577 22.6979C29.5847 22.9683 29.6658 23.2306 29.796 23.4692C29.9262 23.7078 30.1028 23.9178 30.3156 24.0869C30.5284 24.256 30.773 24.3807 31.0348 24.4535C31.2967 24.5264 31.5705 24.5461 31.8401 24.5113L29.8704 27.0437C29.8357 26.7747 29.7483 26.5151 29.6132 26.2799C29.4781 26.0447 29.298 25.8385 29.0831 25.673C28.8682 25.5075 28.6227 25.3859 28.3608 25.3153C28.0989 25.2447 27.8258 25.2265 27.5569 25.2616L29.5577 22.6979Z" fill="url(#paint12_linear_12_412)"/>
<path d="M32.1213 29.0447C33.3818 29.0447 34.4036 28.0228 34.4036 26.7623C34.4036 25.5019 33.3818 24.48 32.1213 24.48C30.8608 24.48 29.839 25.5019 29.839 26.7623C29.839 28.0228 30.8608 29.0447 32.1213 29.0447Z" fill="url(#paint13_linear_12_412)"/>
<path d="M10.9241 12.9435C11.5457 12.9435 12.0496 12.4396 12.0496 11.818C12.0496 11.1964 11.5457 10.6925 10.9241 10.6925C10.3025 10.6925 9.79858 11.1964 9.79858 11.818C9.79858 12.4396 10.3025 12.9435 10.9241 12.9435Z" fill="url(#paint14_linear_12_412)"/>
<path d="M1.70096 47.1467C2.32257 47.1467 2.82648 46.6428 2.82648 46.0212C2.82648 45.3996 2.32257 44.8957 1.70096 44.8957C1.07935 44.8957 0.575439 45.3996 0.575439 46.0212C0.575439 46.6428 1.07935 47.1467 1.70096 47.1467Z" fill="url(#paint15_linear_12_412)"/>
<path d="M12.4872 73.7528C13.1088 73.7528 13.6127 73.2489 13.6127 72.6273C13.6127 72.0057 13.1088 71.5018 12.4872 71.5018C11.8656 71.5018 11.3617 72.0057 11.3617 72.6273C11.3617 73.2489 11.8656 73.7528 12.4872 73.7528Z" fill="url(#paint16_linear_12_412)"/>
<path d="M36.0606 2.25104C36.6822 2.25104 37.1861 1.74713 37.1861 1.12552C37.1861 0.503913 36.6822 0 36.0606 0C35.439 0 34.9351 0.503913 34.9351 1.12552C34.9351 1.74713 35.439 2.25104 36.0606 2.25104Z" fill="url(#paint17_linear_12_412)"/>
<path d="M63.7921 11.7867C64.4137 11.7867 64.9177 11.2828 64.9177 10.6612C64.9177 10.0396 64.4137 9.53564 63.7921 9.53564C63.1705 9.53564 62.6666 10.0396 62.6666 10.6612C62.6666 11.2828 63.1705 11.7867 63.7921 11.7867Z" fill="url(#paint18_linear_12_412)"/>
<path d="M75.6414 43.3326C76.263 43.3326 76.7669 42.8287 76.7669 42.2071C76.7669 41.5855 76.263 41.0815 75.6414 41.0815C75.0198 41.0815 74.5159 41.5855 74.5159 42.2071C74.5159 42.8287 75.0198 43.3326 75.6414 43.3326Z" fill="url(#paint19_linear_12_412)"/>
<path d="M64.949 69.6259C65.5706 69.6259 66.0745 69.122 66.0745 68.5004C66.0745 67.8788 65.5706 67.3749 64.949 67.3749C64.3274 67.3749 63.8235 67.8788 63.8235 68.5004C63.8235 69.122 64.3274 69.6259 64.949 69.6259Z" fill="url(#paint20_linear_12_412)"/>
<path d="M21.2725 42.5822C22.533 42.5822 23.5548 41.5604 23.5548 40.2999C23.5548 39.0394 22.533 38.0176 21.2725 38.0176C20.0121 38.0176 18.9902 39.0394 18.9902 40.2999C18.9902 41.5604 20.0121 42.5822 21.2725 42.5822Z" fill="url(#paint21_linear_12_412)"/>
<path d="M23.555 40.2061C23.5503 40.979 23.8321 41.7262 24.346 42.3036C24.8598 42.8809 25.5694 43.2475 26.3376 43.3325L24.4929 45.2084C24.4007 44.4458 24.0311 43.7439 23.4544 43.2364C22.8778 42.729 22.1346 42.4516 21.3665 42.4571L23.555 40.2061Z" fill="url(#paint22_linear_12_412)"/>
<path d="M26.056 46.6778C26.9539 46.6778 27.6818 45.95 27.6818 45.0521C27.6818 44.1542 26.9539 43.4263 26.056 43.4263C25.1582 43.4263 24.4303 44.1542 24.4303 45.0521C24.4303 45.95 25.1582 46.6778 26.056 46.6778Z" fill="url(#paint23_linear_12_412)"/>
<path d="M42.5948 51.8991C43.8553 51.8991 44.8771 50.8773 44.8771 49.6168C44.8771 48.3563 43.8553 47.3345 42.5948 47.3345C41.3343 47.3345 40.3125 48.3563 40.3125 49.6168C40.3125 50.8773 41.3343 51.8991 42.5948 51.8991Z" fill="url(#paint24_linear_12_412)"/>
<path d="M42.1573 51.8677C41.4567 51.74 40.7341 51.8953 40.1479 52.2998C39.5618 52.7042 39.1601 53.3247 39.0309 54.025L37.6865 52.4618C38.0505 52.4577 38.4099 52.3815 38.7443 52.2375C39.0786 52.0934 39.3811 51.8845 39.6341 51.6228C39.8871 51.3611 40.0856 51.0518 40.2182 50.7128C40.3508 50.3738 40.4148 50.0118 40.4065 49.6479L42.1573 51.8677Z" fill="url(#paint25_linear_12_412)"/>
<path d="M37.6239 55.1192C38.3664 55.1192 38.9683 54.5173 38.9683 53.7748C38.9683 53.0323 38.3664 52.4304 37.6239 52.4304C36.8814 52.4304 36.2795 53.0323 36.2795 53.7748C36.2795 54.5173 36.8814 55.1192 37.6239 55.1192Z" fill="url(#paint26_linear_12_412)"/>
<path d="M48.1599 35.3601C49.4204 35.3601 50.4422 34.3383 50.4422 33.0778C50.4422 31.8174 49.4204 30.7955 48.1599 30.7955C46.8994 30.7955 45.8776 31.8174 45.8776 33.0778C45.8776 34.3383 46.8994 35.3601 48.1599 35.3601Z" fill="url(#paint27_linear_12_412)"/>
<path d="M23.8675 54.4314C24.2647 54.4314 24.5866 54.1094 24.5866 53.7123C24.5866 53.3152 24.2647 52.9932 23.8675 52.9932C23.4704 52.9932 23.1484 53.3152 23.1484 53.7123C23.1484 54.1094 23.4704 54.4314 23.8675 54.4314Z" fill="url(#paint28_linear_12_412)"/>
<path d="M24.3677 54.275C23.691 54.8529 23.1807 55.6008 22.8894 56.4416C22.5981 57.2825 22.5364 58.1858 22.7106 59.0585L20.5533 58.058C21.3349 57.6289 21.9894 57.0011 22.4505 56.238C22.9116 55.475 23.1631 54.6037 23.1796 53.7123L24.3677 54.275Z" fill="url(#paint29_linear_12_412)"/>
<path d="M39.2183 71.9082C40.4788 71.9082 41.5006 70.8864 41.5006 69.6259C41.5006 68.3654 40.4788 67.3436 39.2183 67.3436C37.9579 67.3436 36.936 68.3654 36.936 69.6259C36.936 70.8864 37.9579 71.9082 39.2183 71.9082Z" fill="url(#paint30_linear_12_412)"/>
<path d="M40.7503 67.9376C41.6653 68.7566 42.7796 69.3206 43.9813 69.573C45.1831 69.8254 46.4301 69.7574 47.5972 69.3758V70.5326C46.4625 70.0616 45.2238 69.8975 44.0056 70.0566C42.7873 70.2158 41.6323 70.6925 40.6566 71.4392L40.7503 67.9376Z" fill="url(#paint31_linear_12_412)"/>
<path d="M39.8125 71.8459C38.9703 72.0622 38.2 72.497 37.5796 73.1063C36.9593 73.7157 36.5109 74.478 36.2796 75.3163L35.1228 74.5658C35.8101 74.0321 36.343 73.3252 36.6671 72.5176C36.9913 71.7101 37.0948 70.8308 36.9673 69.97L39.8125 71.8459Z" fill="url(#paint32_linear_12_412)"/>
<path d="M15.3324 29.1697C15.7295 29.1697 16.0514 28.8477 16.0514 28.4506C16.0514 28.0535 15.7295 27.7315 15.3324 27.7315C14.9352 27.7315 14.6133 28.0535 14.6133 28.4506C14.6133 28.8477 14.9352 29.1697 15.3324 29.1697Z" fill="url(#paint33_linear_12_412)"/>
<path d="M13.2061 43.27C13.6033 43.27 13.9252 42.9481 13.9252 42.5509C13.9252 42.1538 13.6033 41.8318 13.2061 41.8318C12.809 41.8318 12.4871 42.1538 12.4871 42.5509C12.4871 42.9481 12.809 43.27 13.2061 43.27Z" fill="url(#paint34_linear_12_412)"/>
<path d="M25.0868 65.1865C25.4839 65.1865 25.8058 64.8645 25.8058 64.4674C25.8058 64.0702 25.4839 63.7483 25.0868 63.7483C24.6896 63.7483 24.3677 64.0702 24.3677 64.4674C24.3677 64.8645 24.6896 65.1865 25.0868 65.1865Z" fill="url(#paint35_linear_12_412)"/>
<path d="M24.399 64.6549C24.2027 63.7433 23.77 62.8994 23.1444 62.208C22.5188 61.5165 21.7223 61.0018 20.8348 60.7155L22.7419 59.3086C22.754 60.2372 23.0121 61.1462 23.49 61.9425C23.9678 62.7389 24.6482 63.3943 25.4619 63.842L24.399 64.6549Z" fill="url(#paint36_linear_12_412)"/>
<path d="M35.5604 75.8475C35.9575 75.8475 36.2795 75.5256 36.2795 75.1284C36.2795 74.7313 35.9575 74.4094 35.5604 74.4094C35.1633 74.4094 34.8413 74.7313 34.8413 75.1284C34.8413 75.5256 35.1633 75.8475 35.5604 75.8475Z" fill="url(#paint37_linear_12_412)"/>
<path d="M39.2183 61.9036C39.6155 61.9036 39.9374 61.5817 39.9374 61.1845C39.9374 60.7874 39.6155 60.4655 39.2183 60.4655C38.8212 60.4655 38.4993 60.7874 38.4993 61.1845C38.4993 61.5817 38.8212 61.9036 39.2183 61.9036Z" fill="url(#paint38_linear_12_412)"/>
<path d="M54.5692 65.1865C54.9663 65.1865 55.2883 64.8645 55.2883 64.4674C55.2883 64.0702 54.9663 63.7483 54.5692 63.7483C54.172 63.7483 53.8501 64.0702 53.8501 64.4674C53.8501 64.8645 54.172 65.1865 54.5692 65.1865Z" fill="url(#paint39_linear_12_412)"/>
<path d="M34.9664 38.3614C35.3635 38.3614 35.6855 38.0395 35.6855 37.6424C35.6855 37.2452 35.3635 36.9233 34.9664 36.9233C34.5693 36.9233 34.2473 37.2452 34.2473 37.6424C34.2473 38.0395 34.5693 38.3614 34.9664 38.3614Z" fill="url(#paint40_linear_12_412)"/>
<path d="M47.6596 24.6677C48.0568 24.6677 48.3787 24.3458 48.3787 23.9486C48.3787 23.5515 48.0568 23.2296 47.6596 23.2296C47.2625 23.2296 46.9406 23.5515 46.9406 23.9486C46.9406 24.3458 47.2625 24.6677 47.6596 24.6677Z" fill="url(#paint41_linear_12_412)"/>
<path d="M59.0086 44.8957C59.4058 44.8957 59.7277 44.5738 59.7277 44.1767C59.7277 43.7795 59.4058 43.4576 59.0086 43.4576C58.6115 43.4576 58.2896 43.7795 58.2896 44.1767C58.2896 44.5738 58.6115 44.8957 59.0086 44.8957Z" fill="url(#paint42_linear_12_412)"/>
<path d="M46.9406 42.9261C47.3378 42.9261 47.6597 42.6041 47.6597 42.207C47.6597 41.8099 47.3378 41.4879 46.9406 41.4879C46.5435 41.4879 46.2216 41.8099 46.2216 42.207C46.2216 42.6041 46.5435 42.9261 46.9406 42.9261Z" fill="url(#paint43_linear_12_412)"/>
<path d="M50.8175 54.3688C51.2146 54.3688 51.5366 54.0469 51.5366 53.6497C51.5366 53.2526 51.2146 52.9307 50.8175 52.9307C50.4203 52.9307 50.0984 53.2526 50.0984 53.6497C50.0984 54.0469 50.4203 54.3688 50.8175 54.3688Z" fill="url(#paint44_linear_12_412)"/>
<path d="M48.0681 70.4598C48.3712 70.2942 48.4828 69.9143 48.3172 69.6112C48.1517 69.3081 47.7718 69.1967 47.4687 69.3622C47.1657 69.5277 47.0541 69.9076 47.2196 70.2107C47.3851 70.5137 47.7651 70.6253 48.0681 70.4598Z" fill="url(#paint45_linear_12_412)"/>
<path d="M35.3416 18.0083C35.7388 18.0083 36.0607 17.6863 36.0607 17.2892C36.0607 16.8921 35.7388 16.5701 35.3416 16.5701C34.9445 16.5701 34.6226 16.8921 34.6226 17.2892C34.6226 17.6863 34.9445 18.0083 35.3416 18.0083Z" fill="url(#paint46_linear_12_412)"/>
<path d="M21.2725 60.7781C22.0841 60.7781 22.742 60.1202 22.742 59.3087C22.742 58.4971 22.0841 57.8392 21.2725 57.8392C20.461 57.8392 19.8031 58.4971 19.8031 59.3087C19.8031 60.1202 20.461 60.7781 21.2725 60.7781Z" fill="url(#paint47_linear_12_412)"/>
<path d="M70.2639 37.0796V36.548C70.1301 35.5102 70.1301 34.4595 70.2639 33.4216C70.591 32.978 70.7665 32.4408 70.7643 31.8897C70.7602 31.4326 70.6368 30.9846 70.4065 30.5898C70.1762 30.195 69.8468 29.8671 69.451 29.6386C68.6411 28.9178 68.0098 28.0188 67.6065 27.0124C65.2773 21.8991 61.6567 17.4804 57.1011 14.1912C52.5456 10.902 47.2123 8.85574 41.6258 8.25377C40.0596 7.85995 38.5318 7.32628 37.0611 6.65925C36.6847 6.46113 36.267 6.35412 35.8417 6.34668C35.1376 6.3484 34.463 6.62952 33.9659 7.12829C33.3409 7.90252 32.5206 8.49605 31.5898 8.8478L29.9327 9.22296H29.714C25.336 10.4569 21.2694 12.6053 17.7826 15.5262C14.2958 18.4472 11.468 22.0743 9.48583 26.1683C8.89988 27.5793 7.92391 28.794 6.67214 29.6699C6.42202 29.6699 6.32806 29.92 6.29679 30.0138C5.84843 30.4857 5.60178 31.1137 5.60906 31.7646C5.60364 32.2252 5.72239 32.6789 5.95293 33.0777C5.95293 33.0777 5.95293 33.0777 5.95293 33.234L6.23439 33.578C6.55866 34.5872 6.63377 35.6599 6.45327 36.7044C6.3276 37.8883 6.26499 39.078 6.26569 40.2685C6.26775 44.5674 7.13965 48.8214 8.8292 52.7743C9.21148 53.6501 9.4644 54.577 9.57971 55.5256C9.56287 55.6081 9.56287 55.6932 9.57971 55.7758C9.47993 56.057 9.42697 56.3528 9.42324 56.6512C9.42098 57.1991 9.59661 57.733 9.92357 58.1727C10.2505 58.6124 10.7112 58.9342 11.2366 59.0898C12.1461 59.3286 12.9765 59.8032 13.6441 60.4654C14.1755 61.122 14.7695 61.7472 15.3636 62.3725C16.5713 63.6717 17.6207 65.1095 18.49 66.6557C19.8556 69.1088 20.906 71.7245 21.6164 74.4406C21.7586 75.2219 21.6261 76.0282 21.2413 76.7229C20.9077 77.1465 20.7144 77.6635 20.6881 78.202C20.6618 78.7406 20.804 79.2739 21.0947 79.728C21.3855 80.182 21.8105 80.5342 22.3107 80.7356C22.8108 80.937 23.3612 80.9776 23.8855 80.8518C24.4098 80.726 24.8819 80.4399 25.2362 80.0335C25.5904 79.627 25.8092 79.1203 25.8623 78.5837C25.9153 78.0471 25.7998 77.5074 25.5319 77.0395C25.2641 76.5715 24.8572 76.1986 24.3677 75.9726C23.9013 75.6072 23.5621 75.1039 23.3985 74.5344C23.3985 74.5344 23.3985 74.3468 23.3985 74.2218C23.3985 74.2218 23.3985 74.2218 23.3985 74.0342C22.6126 71.1759 21.4565 68.4327 19.9595 65.8741C19.0055 64.2153 17.8618 62.673 16.5516 61.2782C15.8638 60.5592 15.2385 59.8088 14.6132 59.0585C14.4749 58.262 14.4749 57.4477 14.6132 56.6512C14.6319 56.5373 14.6319 56.4211 14.6132 56.3072C14.5386 55.7751 14.3043 55.2782 13.9415 54.8819C13.5788 54.4857 13.1044 54.2087 12.581 54.0875C11.7398 53.7649 11.0488 53.1408 10.6426 52.3367C8.95943 48.4806 8.08679 44.3197 8.07889 40.1122C8.07889 39.0805 8.07889 38.0801 8.07889 36.9858C8.09828 36.893 8.09828 36.7972 8.07889 36.7044L8.26647 35.5789C8.63603 34.8148 9.15743 34.1341 9.79858 33.578C10.2098 33.231 10.4964 32.7592 10.6149 32.2344C10.7334 31.7096 10.6772 31.1604 10.455 30.6704C10.334 29.5718 10.4081 28.4604 10.6739 27.3876C12.497 23.3062 15.2089 19.6837 18.6112 16.7844C22.0135 13.8852 26.0202 11.7824 30.3392 10.6299C31.6634 10.4239 33.0162 10.4984 34.3098 10.8487C34.7468 11.1341 35.2574 11.2862 35.7793 11.2864C36.3752 11.291 36.9524 11.08 37.405 10.6924L37.5925 10.4735C38.3979 9.88553 39.3788 9.58799 40.3751 9.62941C45.8426 10.0236 51.1045 11.8758 55.6133 14.9934C60.122 18.1111 63.7128 22.3802 66.012 27.3564C66.012 27.8879 66.606 29.326 66.2309 30.0138C66.0315 30.2804 65.8733 30.5755 65.7618 30.8892C65.6203 31.3184 65.3956 31.7155 65.1006 32.0578C64.8056 32.4001 64.4461 32.6808 64.0425 32.8841C63.6389 33.0873 63.1992 33.209 62.7485 33.2422C62.2979 33.2755 61.8451 33.2196 61.416 33.0777C61.1774 33.0452 60.9356 33.0452 60.697 33.0777C60.2826 33.0787 59.8764 33.1926 59.5217 33.407C59.1671 33.6214 58.8774 33.9283 58.684 34.2948C58.4906 34.6613 58.4006 35.0735 58.4237 35.4873C58.4468 35.901 58.5823 36.3007 58.8153 36.6434C59.0483 36.986 59.3702 37.2588 59.7465 37.4324C60.1228 37.606 60.5392 37.6739 60.9512 37.6288C61.3631 37.5836 61.7549 37.4271 62.0847 37.1761C62.4144 36.9252 62.6697 36.5892 62.823 36.2042C62.9855 35.78 63.2305 35.3922 63.5437 35.0633C63.8569 34.7343 64.2321 34.4707 64.6478 34.2876C65.0635 34.1044 65.5115 34.0054 65.9656 33.9963C66.4198 33.9872 66.8711 34.0682 67.2938 34.2345H67.4813C67.96 34.8556 68.3301 35.5533 68.5757 36.298C68.5757 36.5794 68.5757 36.892 68.5757 37.2047C69.0508 42.2135 68.2773 47.262 66.3246 51.8989C65.8985 52.8398 65.1578 53.6026 64.2299 54.0562C63.5886 54.1253 62.9951 54.428 62.5627 54.9066C62.1302 55.3851 61.889 56.0062 61.8851 56.6512C61.8889 57.067 61.9963 57.4754 62.1976 57.8392C62.5103 58.0581 61.6662 59.6525 61.6662 59.6525C61.0874 60.3354 60.5547 61.0561 60.0717 61.8098C58.0418 65.1617 56.5837 68.828 55.7572 72.6585C55.7652 72.7835 55.7652 72.9088 55.7572 73.0337C55.7426 73.221 55.7426 73.4091 55.7572 73.5964C55.4524 74.6712 54.8951 75.6574 54.1315 76.4728L53.8814 76.7542C53.5687 77.0356 53.475 77.2232 53.5062 77.3482C53.3674 77.6748 53.2931 78.0251 53.2873 78.3799C53.2916 78.7839 53.3901 79.1814 53.5751 79.5407C53.7601 79.8999 54.0264 80.2109 54.3529 80.449C54.6794 80.6871 55.0569 80.8457 55.4555 80.9121C55.854 80.9785 56.2627 80.951 56.6487 80.8317C57.0347 80.7123 57.3876 80.5044 57.6791 80.2246C57.9706 79.9448 58.1927 79.6008 58.3277 79.22C58.4628 78.8392 58.5072 78.432 58.4571 78.0311C58.4071 77.6301 58.2641 77.2464 58.0396 76.9105C57.7529 75.8886 57.5645 74.8417 57.4769 73.784L57.7581 72.596C58.5828 69.1581 59.9327 65.8679 61.7601 62.8415C62.248 62.0912 62.7803 61.3708 63.3544 60.6842C63.9273 60.2045 64.5333 59.7657 65.1678 59.3712C65.7785 59.282 66.3376 58.978 66.7444 58.5139C67.1512 58.0498 67.3792 57.4559 67.3876 56.8387C67.3876 56.8387 67.3876 56.6512 67.3876 56.5574C67.4915 55.4379 67.6902 54.3292 67.9817 53.2433L68.1693 52.8369C68.1522 52.7439 68.1522 52.6485 68.1693 52.5555C68.201 52.4325 68.201 52.3033 68.1693 52.1803C70.0661 47.3869 70.7844 42.2083 70.2639 37.0796Z" fill="url(#paint48_linear_12_412)"/>
<path d="M54.788 90.2291C54.5817 90.84 54.1916 91.3723 53.6711 91.7529C53.1506 92.1335 52.5251 92.3438 51.8804 92.355H27.4942C27.7641 92.8484 28.1622 93.2599 28.6464 93.5461C29.1306 93.8322 29.683 93.9824 30.2455 93.9809H51.7867C53.3812 94.4498 50.8487 96.2006 50.3798 96.8258C42.5637 104.392 27.9007 101.172 24.2427 91.1983C24.1892 90.9914 24.1845 90.7749 24.2292 90.5659C24.2739 90.3569 24.3666 90.1612 24.5002 89.9943C24.6337 89.8274 24.8043 89.6939 24.9984 89.6044C25.1925 89.5149 25.4048 89.472 25.6184 89.4788H51.224C51.7123 89.4828 52.1882 89.3257 52.5782 89.0318C52.9682 88.7379 53.2504 88.3235 53.381 87.853H24.3364C23.955 87.853 23.5892 87.7014 23.3195 87.4317C23.0498 87.162 22.8982 86.7962 22.8982 86.4148C22.8982 86.0334 23.0498 85.6676 23.3195 85.3979C23.5892 85.1282 23.955 84.9767 24.3364 84.9767H54.2878C56.3825 85.1643 55.382 88.5721 54.788 90.2291Z" fill="url(#paint49_linear_12_412)"/>
<path d="M189.659 37.0876V38.4006C189.659 39.3459 190.035 40.2525 190.703 40.9209C191.372 41.5893 192.278 41.9648 193.223 41.9648H198.288C198.459 41.9606 198.629 41.9907 198.788 42.0533C198.947 42.1158 199.092 42.2095 199.215 42.329C199.337 42.4484 199.434 42.5912 199.501 42.7488C199.567 42.9064 199.601 43.0757 199.601 43.2467V46.592C199.601 46.763 199.567 46.9322 199.501 47.0898C199.434 47.2474 199.337 47.3901 199.215 47.5096C199.092 47.629 198.947 47.7227 198.788 47.7853C198.629 47.8478 198.459 47.878 198.288 47.8738H189.503C188.624 47.8738 187.781 48.223 187.159 48.8445C186.538 49.466 186.189 50.3089 186.189 51.1879C186.185 51.8433 186.31 52.493 186.558 53.0997C186.806 53.7064 187.172 54.2582 187.634 54.7231C188.096 55.1881 188.645 55.557 189.25 55.8087C189.855 56.0605 190.504 56.1901 191.16 56.1901V53.9391C191.16 53.5961 191.294 53.2669 191.533 53.0215C191.773 52.7761 192.099 52.6342 192.442 52.626H198.288C198.636 52.626 198.97 52.7643 199.217 53.0106C199.463 53.2569 199.601 53.5908 199.601 53.9391V66.101H200.883C201.862 66.101 202.8 65.7123 203.492 65.0204C204.184 64.3286 204.572 63.3902 204.572 62.4118V43.1529C204.572 42.9845 204.605 42.8179 204.67 42.6624C204.734 42.5068 204.829 42.3655 204.948 42.2465C205.067 42.1274 205.208 42.033 205.363 41.9686C205.519 41.9042 205.686 41.871 205.854 41.871H209.199C209.816 41.8628 210.404 41.6121 210.837 41.1733C211.27 40.7344 211.513 40.1427 211.513 39.5262V36.9938L189.659 37.0876Z" fill="url(#paint50_linear_12_412)"/>
<path d="M246.091 46.8107H240.526C240.178 46.8107 239.844 46.6723 239.598 46.4261C239.352 46.1798 239.213 45.8459 239.213 45.4976V43.1841C239.213 42.8358 239.352 42.5018 239.598 42.2555C239.844 42.0093 240.178 41.8709 240.526 41.8709H244.247V40.5578C244.247 39.6042 243.868 38.6897 243.194 38.0155C242.519 37.3412 241.605 36.9624 240.651 36.9624H220.736C220.321 36.9624 219.924 36.7977 219.631 36.5045C219.337 36.2114 219.173 35.8138 219.173 35.3992C219.173 32.638 218.076 29.99 216.123 28.0375C214.171 26.0851 211.523 24.9882 208.762 24.9882H208.418C206.032 24.9964 203.747 25.9477 202.06 27.6345C200.373 29.3213 199.422 31.6068 199.414 33.9923H203.103C203.274 33.9924 203.443 33.9582 203.601 33.8919C203.758 33.8255 203.901 33.7282 204.02 33.6058C204.14 33.4835 204.234 33.3385 204.296 33.1793C204.359 33.0202 204.389 32.8501 204.385 32.6792C204.385 32.344 204.451 32.0121 204.58 31.7028C204.71 31.3935 204.899 31.1129 205.137 30.8773C205.376 30.6418 205.659 30.4559 205.97 30.3305C206.281 30.2051 206.613 30.1426 206.948 30.1468H209.887C210.469 30.1427 211.045 30.2536 211.584 30.4733C212.122 30.693 212.612 31.0171 213.025 31.4268C213.437 31.8366 213.765 32.324 213.988 32.8609C214.212 33.3977 214.327 33.9735 214.327 34.5551V66.1947C215.645 66.1947 216.909 65.671 217.842 64.7387C218.774 63.8064 219.298 62.542 219.298 61.2236V43.528C219.321 43.1103 219.502 42.717 219.804 42.4271C220.105 42.1371 220.505 41.972 220.924 41.9647H232.929C233.277 41.9647 233.611 42.1031 233.858 42.3493C234.104 42.5956 234.242 42.9296 234.242 43.2779V45.5914C234.242 45.9397 234.104 46.2736 233.858 46.5199C233.611 46.7661 233.277 46.9045 232.929 46.9045H227.176C226.764 46.9034 226.356 46.9893 225.979 47.1563C225.602 47.3232 225.264 47.5677 224.988 47.8738C224.479 48.4148 224.199 49.1317 224.206 49.8746V58.6912C224.199 59.4341 224.479 60.1511 224.988 60.6921C225.264 60.9982 225.602 61.2426 225.979 61.4096C226.356 61.5766 226.764 61.6623 227.176 61.6613H232.992C233.34 61.6613 233.674 61.7996 233.92 62.0459C234.166 62.2922 234.305 62.6262 234.305 62.9744V66.6011H235.618C236.613 66.6011 237.567 66.2059 238.271 65.5023C238.974 64.7987 239.37 63.8444 239.37 62.8494V54.4705C239.37 53.7657 239.65 53.0898 240.148 52.5914C240.646 52.093 241.322 51.813 242.027 51.813C242.342 51.815 242.654 51.8795 242.943 52.003C243.233 52.1264 243.496 52.3063 243.715 52.5321C244.149 52.9883 244.394 53.5912 244.403 54.2204V61.6613H245.716C246.207 61.6654 246.695 61.5723 247.15 61.3872C247.605 61.2021 248.019 60.9287 248.367 60.5828C248.716 60.2369 248.993 59.8253 249.182 59.3719C249.371 58.9185 249.468 58.432 249.468 57.9408V50.0935C249.492 49.6481 249.42 49.2027 249.257 48.7873C249.095 48.3719 248.845 47.9961 248.525 47.6851C248.205 47.3742 247.823 47.1353 247.403 46.9844C246.983 46.8336 246.536 46.7744 246.091 46.8107ZM234.148 56.6591H230.49C230.31 56.6591 230.131 56.6234 229.964 56.5543C229.797 56.4852 229.646 56.3839 229.518 56.2561C229.39 56.1284 229.289 55.9767 229.22 55.8098C229.15 55.6429 229.115 55.4641 229.115 55.2834V53.0324C229.111 52.8614 229.141 52.6914 229.203 52.5322C229.266 52.3731 229.36 52.228 229.479 52.1056C229.599 51.9833 229.741 51.8861 229.899 51.8197C230.056 51.7533 230.226 51.7192 230.397 51.7192H234.148V56.6591Z" fill="url(#paint51_linear_12_412)"/>
<defs>
<linearGradient id="paint0_linear_12_412" x1="87.9243" y1="35.8682" x2="242.903" y2="69.8218" gradientUnits="userSpaceOnUse">
<stop stop-color="#FF55F1"/>
<stop offset="1" stop-color="#7300FF"/>
</linearGradient>
<linearGradient id="paint1_linear_12_412" x1="85.9861" y1="44.6535" x2="240.964" y2="78.6381" gradientUnits="userSpaceOnUse">
<stop stop-color="#FF55F1"/>
<stop offset="1" stop-color="#7300FF"/>
</linearGradient>
<linearGradient id="paint2_linear_12_412" x1="87.3001" y1="38.588" x2="242.277" y2="72.5719" gradientUnits="userSpaceOnUse">
<stop stop-color="#FF55F1"/>
<stop offset="1" stop-color="#7300FF"/>
</linearGradient>
<linearGradient id="paint3_linear_12_412" x1="89.7697" y1="28.4267" x2="244.746" y2="62.4108" gradientUnits="userSpaceOnUse">
<stop stop-color="#FF55F1"/>
<stop offset="1" stop-color="#7300FF"/>
</linearGradient>
<linearGradient id="paint4_linear_12_412" x1="91.268" y1="21.6111" x2="246.249" y2="55.5657" gradientUnits="userSpaceOnUse">
<stop stop-color="#FF55F1"/>
<stop offset="1" stop-color="#7300FF"/>
</linearGradient>
<linearGradient id="paint5_linear_12_412" x1="86.3594" y1="43.9341" x2="241.34" y2="77.8889" gradientUnits="userSpaceOnUse">
<stop stop-color="#FF55F1"/>
<stop offset="1" stop-color="#7300FF"/>
</linearGradient>
<linearGradient id="paint6_linear_12_412" x1="86.7051" y1="41.402" x2="241.683" y2="75.3554" gradientUnits="userSpaceOnUse">
<stop stop-color="#FF55F1"/>
<stop offset="1" stop-color="#7300FF"/>
</linearGradient>
<linearGradient id="paint7_linear_12_412" x1="79.0805" y1="56.5887" x2="234.059" y2="90.5733" gradientUnits="userSpaceOnUse">
<stop stop-color="#FF55F1"/>
<stop offset="1" stop-color="#7300FF"/>
</linearGradient>
<linearGradient id="paint8_linear_12_412" x1="79.3619" y1="55.4318" x2="234.339" y2="89.3846" gradientUnits="userSpaceOnUse">
<stop stop-color="#FF55F1"/>
<stop offset="1" stop-color="#7300FF"/>
</linearGradient>
<linearGradient id="paint9_linear_12_412" x1="85.5486" y1="47.5607" x2="240.526" y2="81.5452" gradientUnits="userSpaceOnUse">
<stop stop-color="#FF55F1"/>
<stop offset="1" stop-color="#7300FF"/>
</linearGradient>
<linearGradient id="paint10_linear_12_412" x1="90.7384" y1="23.9559" x2="245.716" y2="57.9091" gradientUnits="userSpaceOnUse">
<stop stop-color="#FF55F1"/>
<stop offset="1" stop-color="#7300FF"/>
</linearGradient>
<linearGradient id="paint11_linear_12_412" x1="22.5856" y1="21.7287" x2="37.9364" y2="25.8869" gradientUnits="userSpaceOnUse">
<stop stop-color="#FF55F1"/>
<stop offset="0.66" stop-color="#B729F8"/>
<stop offset="1" stop-color="#7300FF"/>
</linearGradient>
<linearGradient id="paint12_linear_12_412" x1="22.3045" y1="22.8855" x2="37.6553" y2="27.0436" gradientUnits="userSpaceOnUse">
<stop stop-color="#FF55F1"/>
<stop offset="0.66" stop-color="#B729F8"/>
<stop offset="1" stop-color="#7300FF"/>
</linearGradient>
<linearGradient id="paint13_linear_12_412" x1="21.9916" y1="24.0111" x2="37.3112" y2="28.1692" gradientUnits="userSpaceOnUse">
<stop stop-color="#FF55F1"/>
<stop offset="0.66" stop-color="#B729F8"/>
<stop offset="1" stop-color="#7300FF"/>
</linearGradient>
<linearGradient id="paint14_linear_12_412" x1="-5.14582" y1="2.09478" x2="84.6769" y2="56.3073" gradientUnits="userSpaceOnUse">
<stop stop-color="#FF55F1"/>
<stop offset="0.66" stop-color="#B729F8"/>
<stop offset="1" stop-color="#7300FF"/>
</linearGradient>
<linearGradient id="paint15_linear_12_412" x1="-22.7478" y1="31.2644" x2="67.0749" y2="85.4769" gradientUnits="userSpaceOnUse">
<stop stop-color="#FF55F1"/>
<stop offset="0.66" stop-color="#B729F8"/>
<stop offset="1" stop-color="#7300FF"/>
</linearGradient>
<linearGradient id="paint16_linear_12_412" x1="-31.6269" y1="45.99" x2="58.1958" y2="100.203" gradientUnits="userSpaceOnUse">
<stop stop-color="#FF55F1"/>
<stop offset="0.66" stop-color="#B729F8"/>
<stop offset="1" stop-color="#7300FF"/>
</linearGradient>
<linearGradient id="paint17_linear_12_412" x1="-1.33172" y1="-26.012" x2="115.566" y2="58.871" gradientUnits="userSpaceOnUse">
<stop stop-color="#FF55F1"/>
<stop offset="0.66" stop-color="#B729F8"/>
<stop offset="1" stop-color="#7300FF"/>
</linearGradient>
<linearGradient id="paint18_linear_12_412" x1="9.48584" y1="-22.1352" x2="99.2773" y2="32.0772" gradientUnits="userSpaceOnUse">
<stop stop-color="#FF55F1"/>
<stop offset="0.66" stop-color="#B729F8"/>
<stop offset="1" stop-color="#7300FF"/>
</linearGradient>
<linearGradient id="paint19_linear_12_412" x1="-1.33181" y1="-4.2206" x2="88.491" y2="49.9921" gradientUnits="userSpaceOnUse">
<stop stop-color="#FF55F1"/>
<stop offset="0.66" stop-color="#B729F8"/>
<stop offset="1" stop-color="#7300FF"/>
</linearGradient>
<linearGradient id="paint20_linear_12_412" x1="-15.8072" y1="19.759" x2="74.0157" y2="73.9717" gradientUnits="userSpaceOnUse">
<stop stop-color="#FF55F1"/>
<stop offset="0.66" stop-color="#B729F8"/>
<stop offset="1" stop-color="#7300FF"/>
</linearGradient>
<linearGradient id="paint21_linear_12_412" x1="18.1461" y1="37.236" x2="28.8073" y2="47.6783" gradientUnits="userSpaceOnUse">
<stop stop-color="#FF55F1"/>
<stop offset="0.66" stop-color="#B729F8"/>
<stop offset="1" stop-color="#7300FF"/>
</linearGradient>
<linearGradient id="paint22_linear_12_412" x1="18.1462" y1="37.2359" x2="28.8074" y2="47.6784" gradientUnits="userSpaceOnUse">
<stop stop-color="#FF55F1"/>
<stop offset="0.66" stop-color="#B729F8"/>
<stop offset="1" stop-color="#7300FF"/>
</linearGradient>
<linearGradient id="paint23_linear_12_412" x1="18.1149" y1="37.2672" x2="28.7761" y2="47.7096" gradientUnits="userSpaceOnUse">
<stop stop-color="#FF55F1"/>
<stop offset="0.66" stop-color="#B729F8"/>
<stop offset="1" stop-color="#7300FF"/>
</linearGradient>
<linearGradient id="paint24_linear_12_412" x1="33.872" y1="56.3386" x2="46.1277" y2="46.8655" gradientUnits="userSpaceOnUse">
<stop stop-color="#FF55F1"/>
<stop offset="0.66" stop-color="#B729F8"/>
<stop offset="1" stop-color="#7300FF"/>
</linearGradient>
<linearGradient id="paint25_linear_12_412" x1="33.9348" y1="56.4011" x2="46.1906" y2="46.9281" gradientUnits="userSpaceOnUse">
<stop stop-color="#FF55F1"/>
<stop offset="0.66" stop-color="#B729F8"/>
<stop offset="1" stop-color="#7300FF"/>
</linearGradient>
<linearGradient id="paint26_linear_12_412" x1="34.0285" y1="56.5261" x2="46.2841" y2="47.0529" gradientUnits="userSpaceOnUse">
<stop stop-color="#FF55F1"/>
<stop offset="0.66" stop-color="#B729F8"/>
<stop offset="1" stop-color="#7300FF"/>
</linearGradient>
<linearGradient id="paint27_linear_12_412" x1="44.1893" y1="31.1394" x2="53.0059" y2="35.4539" gradientUnits="userSpaceOnUse">
<stop stop-color="#FF55F1"/>
<stop offset="0.66" stop-color="#B729F8"/>
<stop offset="1" stop-color="#7300FF"/>
</linearGradient>
<linearGradient id="paint28_linear_12_412" x1="21.6477" y1="47.8659" x2="29.1824" y2="67.6562" gradientUnits="userSpaceOnUse">
<stop stop-color="#FF55F1"/>
<stop offset="0.66" stop-color="#B729F8"/>
<stop offset="1" stop-color="#7300FF"/>
</linearGradient>
<linearGradient id="paint29_linear_12_412" x1="19.6154" y1="48.6475" x2="27.1499" y2="68.4692" gradientUnits="userSpaceOnUse">
<stop stop-color="#FF55F1"/>
<stop offset="0.66" stop-color="#B729F8"/>
<stop offset="1" stop-color="#7300FF"/>
</linearGradient>
<linearGradient id="paint30_linear_12_412" x1="37.8427" y1="66.7496" x2="40.9379" y2="73.2213" gradientUnits="userSpaceOnUse">
<stop stop-color="#FF55F1"/>
<stop offset="0.66" stop-color="#B729F8"/>
<stop offset="1" stop-color="#7300FF"/>
</linearGradient>
<linearGradient id="paint31_linear_12_412" x1="41.5007" y1="64.9988" x2="44.5959" y2="71.4705" gradientUnits="userSpaceOnUse">
<stop stop-color="#FF55F1"/>
<stop offset="0.66" stop-color="#B729F8"/>
<stop offset="1" stop-color="#7300FF"/>
</linearGradient>
<linearGradient id="paint32_linear_12_412" x1="35.029" y1="68.1253" x2="38.1243" y2="74.5971" gradientUnits="userSpaceOnUse">
<stop stop-color="#FF55F1"/>
<stop offset="0.66" stop-color="#B729F8"/>
<stop offset="1" stop-color="#7300FF"/>
</linearGradient>
<linearGradient id="paint33_linear_12_412" x1="-11.3362" y1="12.3494" x2="78.4865" y2="66.562" gradientUnits="userSpaceOnUse">
<stop stop-color="#FF55F1"/>
<stop offset="0.66" stop-color="#B729F8"/>
<stop offset="1" stop-color="#7300FF"/>
</linearGradient>
<linearGradient id="paint34_linear_12_412" x1="-18.1521" y1="23.6359" x2="71.6707" y2="77.8485" gradientUnits="userSpaceOnUse">
<stop stop-color="#FF55F1"/>
<stop offset="0.66" stop-color="#B729F8"/>
<stop offset="1" stop-color="#7300FF"/>
</linearGradient>
<linearGradient id="paint35_linear_12_412" x1="19.1465" y1="48.8351" x2="26.6813" y2="68.6255" gradientUnits="userSpaceOnUse">
<stop stop-color="#FF55F1"/>
<stop offset="0.66" stop-color="#B729F8"/>
<stop offset="1" stop-color="#7300FF"/>
</linearGradient>
<linearGradient id="paint36_linear_12_412" x1="18.1774" y1="49.21" x2="25.7124" y2="69.0006" gradientUnits="userSpaceOnUse">
<stop stop-color="#FF55F1"/>
<stop offset="0.66" stop-color="#B729F8"/>
<stop offset="1" stop-color="#7300FF"/>
</linearGradient>
<linearGradient id="paint37_linear_12_412" x1="32.7153" y1="69.2195" x2="35.8418" y2="75.6912" gradientUnits="userSpaceOnUse">
<stop stop-color="#FF55F1"/>
<stop offset="0.66" stop-color="#B729F8"/>
<stop offset="1" stop-color="#7300FF"/>
</linearGradient>
<linearGradient id="paint38_linear_12_412" x1="-19.4338" y1="25.7932" x2="70.3889" y2="80.0059" gradientUnits="userSpaceOnUse">
<stop stop-color="#FF55F1"/>
<stop offset="0.66" stop-color="#B729F8"/>
<stop offset="1" stop-color="#7300FF"/>
</linearGradient>
<linearGradient id="paint39_linear_12_412" x1="-16.8074" y1="21.4161" x2="73.0154" y2="75.6285" gradientUnits="userSpaceOnUse">
<stop stop-color="#FF55F1"/>
<stop offset="0.66" stop-color="#B729F8"/>
<stop offset="1" stop-color="#7300FF"/>
</linearGradient>
<linearGradient id="paint40_linear_12_412" x1="-10.1481" y1="10.411" x2="79.6746" y2="64.6234" gradientUnits="userSpaceOnUse">
<stop stop-color="#FF55F1"/>
<stop offset="0.66" stop-color="#B729F8"/>
<stop offset="1" stop-color="#7300FF"/>
</linearGradient>
<linearGradient id="paint41_linear_12_412" x1="-0.706468" y1="-5.25236" x2="89.1163" y2="48.9602" gradientUnits="userSpaceOnUse">
<stop stop-color="#FF55F1"/>
<stop offset="0.66" stop-color="#B729F8"/>
<stop offset="1" stop-color="#7300FF"/>
</linearGradient>
<linearGradient id="paint42_linear_12_412" x1="-6.61558" y1="4.56461" x2="83.2073" y2="58.7461" gradientUnits="userSpaceOnUse">
<stop stop-color="#FF55F1"/>
<stop offset="0.66" stop-color="#B729F8"/>
<stop offset="1" stop-color="#7300FF"/>
</linearGradient>
<linearGradient id="paint43_linear_12_412" x1="-8.99145" y1="8.47272" x2="80.8312" y2="62.6853" gradientUnits="userSpaceOnUse">
<stop stop-color="#FF55F1"/>
<stop offset="0.66" stop-color="#B729F8"/>
<stop offset="1" stop-color="#7300FF"/>
</linearGradient>
<linearGradient id="paint44_linear_12_412" x1="-12.9931" y1="15.132" x2="76.7982" y2="69.3445" gradientUnits="userSpaceOnUse">
<stop stop-color="#FF55F1"/>
<stop offset="0.66" stop-color="#B729F8"/>
<stop offset="1" stop-color="#7300FF"/>
</linearGradient>
<linearGradient id="paint45_linear_12_412" x1="44.6348" y1="63.4443" x2="47.7612" y2="69.9159" gradientUnits="userSpaceOnUse">
<stop stop-color="#FF55F1"/>
<stop offset="0.66" stop-color="#B729F8"/>
<stop offset="1" stop-color="#7300FF"/>
</linearGradient>
<linearGradient id="paint46_linear_12_412" x1="-1.05018" y1="-4.65843" x2="88.7726" y2="49.5229" gradientUnits="userSpaceOnUse">
<stop stop-color="#FF55F1"/>
<stop offset="0.66" stop-color="#B729F8"/>
<stop offset="1" stop-color="#7300FF"/>
</linearGradient>
<linearGradient id="paint47_linear_12_412" x1="17.5208" y1="49.4604" x2="25.0555" y2="69.2508" gradientUnits="userSpaceOnUse">
<stop stop-color="#FF55F1"/>
<stop offset="0.66" stop-color="#B729F8"/>
<stop offset="1" stop-color="#7300FF"/>
</linearGradient>
<linearGradient id="paint48_linear_12_412" x1="37.9053" y1="13.9127" x2="38.2492" y2="85.5707" gradientUnits="userSpaceOnUse">
<stop stop-color="#FF55F1"/>
<stop offset="0.66" stop-color="#B729F8"/>
<stop offset="1" stop-color="#7300FF"/>
</linearGradient>
<linearGradient id="paint49_linear_12_412" x1="38.8744" y1="13.9128" x2="39.2183" y2="85.5707" gradientUnits="userSpaceOnUse">
<stop stop-color="#FF55F1"/>
<stop offset="0.51" stop-color="#B729F8"/>
<stop offset="1" stop-color="#7300FF"/>
</linearGradient>
<linearGradient id="paint50_linear_12_412" x1="89.9884" y1="26.3326" x2="244.966" y2="60.3169" gradientUnits="userSpaceOnUse">
<stop stop-color="#FF55F1"/>
<stop offset="1" stop-color="#7300FF"/>
</linearGradient>
<linearGradient id="paint51_linear_12_412" x1="91.5824" y1="19.173" x2="246.56" y2="53.1575" gradientUnits="userSpaceOnUse">
<stop stop-color="#FF55F1"/>
<stop offset="1" stop-color="#7300FF"/>
</linearGradient>
</defs>
</svg>
