<svg width="24" height="24" viewBox="0 0 24 24" fill="none" xmlns="http://www.w3.org/2000/svg">
<path d="M12 17C14.7614 17 17 14.7614 17 12C17 9.23858 14.7614 7 12 7C9.23858 7 7 9.23858 7 12C7 14.7614 9.23858 17 12 17Z" fill="white"/>
<path d="M11.25 4C11.25 4.41421 11.5858 4.75 12 4.75C12.4142 4.75 12.75 4.41421 12.75 4H11.25ZM12.75 2C12.75 1.58579 12.4142 1.25 12 1.25C11.5858 1.25 11.25 1.58579 11.25 2H12.75ZM12.75 20C12.75 19.5858 12.4142 19.25 12 19.25C11.5858 19.25 11.25 19.5858 11.25 20H12.75ZM11.25 22C11.25 22.4142 11.5858 22.75 12 22.75C12.4142 22.75 12.75 22.4142 12.75 22H11.25ZM12.75 4V2H11.25V4H12.75ZM11.25 20V22H12.75V20H11.25Z" fill="white"/>
<path d="M5.88388 6.94454C6.17678 7.23744 6.65165 7.23744 6.94454 6.94454C7.23744 6.65165 7.23744 6.17678 6.94454 5.88388L5.88388 6.94454ZM5.53033 4.46967C5.23744 4.17678 4.76256 4.17678 4.46967 4.46967C4.17678 4.76256 4.17678 5.23744 4.46967 5.53033L5.53033 4.46967ZM18.2583 17.1976C17.9654 16.9047 17.4905 16.9047 17.1976 17.1976C16.9047 17.4905 16.9047 17.9654 17.1976 18.2583L18.2583 17.1976ZM18.6118 19.6725C18.9047 19.9654 19.3796 19.9654 19.6725 19.6725C19.9654 19.3796 19.9654 18.9047 19.6725 18.6118L18.6118 19.6725ZM6.94454 5.88388L5.53033 4.46967L4.46967 5.53033L5.88388 6.94454L6.94454 5.88388ZM17.1976 18.2583L18.6118 19.6725L19.6725 18.6118L18.2583 17.1976L17.1976 18.2583Z" fill="white"/>
<path d="M4 12.75C4.41421 12.75 4.75 12.4142 4.75 12C4.75 11.5858 4.41421 11.25 4 11.25V12.75ZM2 11.25C1.58579 11.25 1.25 11.5858 1.25 12C1.25 12.4142 1.58579 12.75 2 12.75V11.25ZM20 11.25C19.5858 11.25 19.25 11.5858 19.25 12C19.25 12.4142 19.5858 12.75 20 12.75V11.25ZM22 12.75C22.4142 12.75 22.75 12.4142 22.75 12C22.75 11.5858 22.4142 11.25 22 11.25V12.75ZM4 11.25H2V12.75H4V11.25ZM20 12.75H22V11.25H20V12.75Z" fill="white"/>
<path d="M17.1976 5.88388C16.9047 6.17678 16.9047 6.65165 17.1976 6.94454C17.4905 7.23744 17.9654 7.23744 18.2583 6.94454L17.1976 5.88388ZM19.6725 5.53033C19.9654 5.23744 19.9654 4.76256 19.6725 4.46967C19.3796 4.17678 18.9047 4.17678 18.6118 4.46967L19.6725 5.53033ZM6.94454 18.2583C7.23744 17.9654 7.23744 17.4905 6.94454 17.1976C6.65165 16.9047 6.17678 16.9047 5.88388 17.1976L6.94454 18.2583ZM4.46967 18.6118C4.17678 18.9047 4.17678 19.3796 4.46967 19.6725C4.76256 19.9654 5.23744 19.9654 5.53033 19.6725L4.46967 18.6118ZM18.2583 6.94454L19.6725 5.53033L18.6118 4.46967L17.1976 5.88388L18.2583 6.94454ZM5.88388 17.1976L4.46967 18.6118L5.53033 19.6725L6.94454 18.2583L5.88388 17.1976Z" fill="white"/>
</svg>
